<?xml version="1.0" standalone="no"?><!DOCTYPE svg PUBLIC "-//W3C//DTD SVG 1.1//EN" "http://www.w3.org/Graphics/SVG/1.1/DTD/svg11.dtd"><svg t="1708916552977" class="icon" viewBox="0 0 1024 1024" version="1.1" xmlns="http://www.w3.org/2000/svg" p-id="5162" xmlns:xlink="http://www.w3.org/1999/xlink" width="200" height="200"><path d="M512 1024c-281.746286 0-512-230.253714-512-512s230.253714-512 512-512 512 230.253714 512 512-230.253714 512-512 512z m0-73.435429c241.517714 0 438.564571-197.046857 438.564571-438.564571 0-241.517714-197.046857-438.637714-438.564571-438.637714-241.517714 0-438.637714 197.12-438.637714 438.637714S270.482286 950.564571 512 950.564571z m26.624-235.52l179.931429-175.835428a35.547429 35.547429 0 0 0 0.585142-50.322286L543.451429 308.955429a35.547429 35.547429 0 1 0-50.907429 49.737142l116.004571 118.418286-340.918857-4.169143a35.986286 35.986286 0 0 0-36.132571 34.889143c0 19.529143 15.36 35.547429 34.962286 36.132572l340.845714 4.169142L488.96 664.137143a35.108571 35.108571 0 0 0-10.605714 24.868571c0 8.850286 3.510857 18.285714 10.020571 25.453715a35.035429 35.035429 0 0 0 50.322286 0.585142z" fill="#ffffff" p-id="5163"></path></svg>