<svg width="30" height="30" viewBox="0 0 30 30" fill="none" xmlns="http://www.w3.org/2000/svg">
<mask id="mask0_152_1252665" style="mask-type:luminance" maskUnits="userSpaceOnUse" x="2" y="2" width="26" height="26">
<path fill-rule="evenodd" clip-rule="evenodd" d="M19.0614 6.15411C19.0104 3.95475 17.2116 2.1875 15 2.1875C12.7563 2.1875 10.9375 4.00634 10.9375 6.25H3.4375L3.38241 6.25159C2.89029 6.28011 2.5 6.68822 2.5 7.1875C2.5 7.70527 2.91973 8.125 3.4375 8.125H5.02657H6.91093H11.875L11.9301 8.12341C12.4222 8.09489 12.8125 7.68678 12.8125 7.1875V6.25L12.8138 6.1748C12.8534 5.00149 13.817 4.0625 15 4.0625C16.2081 4.0625 17.1875 5.04188 17.1875 6.25V7.1875L17.1891 7.24259C17.2176 7.73471 17.6257 8.125 18.125 8.125H23.0886H24.9732H26.25L26.3051 8.12341C26.7972 8.09489 27.1875 7.68678 27.1875 7.1875C27.1875 6.66973 26.7678 6.25 26.25 6.25H19.0625L19.0614 6.15411ZM22.9622 9.375H24.8467L24.6061 11.7533L23.4572 23.2775C23.2216 25.6402 21.2588 27.4477 18.8958 27.4989L18.7928 27.5H11.2062C8.8324 27.5 6.83928 25.7269 6.55332 23.3813L6.54197 23.2789L5.15157 9.375H7.03593L8.40766 23.0924C8.54867 24.5025 9.71514 25.5828 11.1231 25.6238L11.2062 25.625H18.7928C20.2102 25.625 21.4014 24.5714 21.582 23.1741L21.5914 23.0915L22.7405 11.5659L22.9622 9.375ZM11.875 15.5625C11.875 15.0793 12.2668 14.6875 12.75 14.6875H12.875C13.3582 14.6875 13.75 15.0793 13.75 15.5625V23.1875C13.75 23.6707 13.3582 24.0625 12.875 24.0625H12.75C12.2668 24.0625 11.875 23.6707 11.875 23.1875V15.5625ZM17.125 14.6875C16.6418 14.6875 16.25 15.0793 16.25 15.5625V23.1875C16.25 23.6707 16.6418 24.0625 17.125 24.0625H17.25C17.7332 24.0625 18.125 23.6707 18.125 23.1875V15.5625C18.125 15.0793 17.7332 14.6875 17.25 14.6875H17.125Z" fill="white"/>
</mask>
<g mask="url(#mask0_152_1252665)">
<rect width="30" height="30" fill="white" fill-opacity="0.9"/>
</g>
</svg>
