<?xml version="1.0" standalone="no"?><!DOCTYPE svg PUBLIC "-//W3C//DTD SVG 1.1//EN" "http://www.w3.org/Graphics/SVG/1.1/DTD/svg11.dtd"><svg t="1708917382697" class="icon" viewBox="0 0 1024 1024" version="1.1" xmlns="http://www.w3.org/2000/svg" p-id="25142" xmlns:xlink="http://www.w3.org/1999/xlink" width="200" height="200"><path d="M329.142857 512h512c21.942857 0 36.571429 14.628571 36.571429 36.571429s-14.628571 36.571429-36.571429 36.571428h-512c-21.942857 0-36.571429-14.628571-36.571428-36.571428s14.628571-36.571429 36.571428-36.571429z m-292.571428 0c21.942857 0 36.571429 14.628571 36.571428 36.571429S58.514286 585.142857 36.571429 585.142857 0 570.514286 0 548.571429 14.628571 512 36.571429 512z m146.285714 0c21.942857 0 36.571429 14.628571 36.571428 36.571429s-14.628571 36.571429-36.571428 36.571428-36.571429-14.628571-36.571429-36.571428 14.628571-36.571429 36.571429-36.571429z m687.542857 36.571429L533.942857 212.114286c-14.628571-14.628571-14.628571-36.571429 0-51.2 14.628571-14.628571 43.885714-14.628571 58.514286 0L950.857143 519.314286c7.314286 7.314286 7.314286 14.628571 7.314286 29.257143 0 7.314286 0 21.942857-7.314286 29.257142l-358.4 358.4c-14.628571 14.628571-36.571429 14.628571-51.2 0-14.628571-14.628571-14.628571-36.571429 0-51.2l329.142857-336.457142z" p-id="25143" fill="#707070"></path></svg>