<svg width="96" height="96" viewBox="0 0 96 96" fill="none" xmlns="http://www.w3.org/2000/svg">
<path d="M39.9931 72.2435L40.1213 72.1224L59.9203 52.3235C62.597 49.6467 62.6528 45.3416 60.0876 42.597L59.9203 42.424L40.1213 22.625C39.6058 22.1095 38.9494 21.8208 38.2761 21.7589L38.0921 21.7477H37.9079C37.1711 21.7702 36.441 22.0626 35.8787 22.625C34.7489 23.7547 34.7086 25.5613 35.7576 26.7394L35.8787 26.8676L54.2635 45.2524C55.3932 46.3821 55.4335 48.1887 54.3845 49.3668L54.2635 49.495L35.8787 67.8798C34.7071 69.0514 34.7071 70.9509 35.8787 72.1224C36.4435 72.6873 37.1776 72.9798 37.9177 73L38.1028 72.9994C38.7811 72.9763 39.4531 72.7243 39.9931 72.2435Z" fill="black"/>
</svg>
